<?xml version="1.0" encoding="UTF-8"?>
<svg version="1.1" xmlns="http://www.w3.org/2000/svg" width="1024" height="256">
<path d="M0 0 C15.84 0 31.68 0 48 0 C48 2.64 48 5.28 48 8 C50.64 8 53.28 8 56 8 C56 10.64 56 13.28 56 16 C58.64 16 61.28 16 64 16 C64 18.64 64 21.28 64 24 C66.64 24 69.28 24 72 24 C72 29.28 72 34.56 72 40 C74.64 40 77.28 40 80 40 C80 45.28 80 50.56 80 56 C82.64 56 85.28 56 88 56 C88 61.28 88 66.56 88 72 C85.36 72 82.72 72 80 72 C80 74.64 80 77.28 80 80 C74.72 80 69.44 80 64 80 C64 77.36 64 74.72 64 72 C61.36 72 58.72 72 56 72 C56 69.36 56 66.72 56 64 C53.36 64 50.72 64 48 64 C48 61.36 48 58.72 48 56 C45.36 56 42.72 56 40 56 C40 53.36 40 50.72 40 48 C37.36 48 34.72 48 32 48 C32 45.36 32 42.72 32 40 C26.72 40 21.44 40 16 40 C16 45.28 16 50.56 16 56 C18.64 56 21.28 56 24 56 C24 58.64 24 61.28 24 64 C26.64 64 29.28 64 32 64 C32 66.64 32 69.28 32 72 C34.64 72 37.28 72 40 72 C40 74.64 40 77.28 40 80 C42.64 80 45.28 80 48 80 C48 82.64 48 85.28 48 88 C50.64 88 53.28 88 56 88 C56 90.64 56 93.28 56 96 C58.64 96 61.28 96 64 96 C64 98.64 64 101.28 64 104 C69.28 104 74.56 104 80 104 C80 106.64 80 109.28 80 112 C82.64 112 85.28 112 88 112 C88 122.56 88 133.12 88 144 C85.36 144 82.72 144 80 144 C80 146.64 80 149.28 80 152 C77.36 152 74.72 152 72 152 C72 154.64 72 157.28 72 160 C50.88 160 29.76 160 8 160 C8 157.36 8 154.72 8 152 C5.36 152 2.72 152 0 152 C0 149.36 0 146.72 0 144 C-2.64 144 -5.28 144 -8 144 C-8 141.36 -8 138.72 -8 136 C-10.64 136 -13.28 136 -16 136 C-16 128.08 -16 120.16 -16 112 C-13.36 112 -10.72 112 -8 112 C-8 109.36 -8 106.72 -8 104 C-2.72 104 2.56 104 8 104 C8 106.64 8 109.28 8 112 C10.64 112 13.28 112 16 112 C16 114.64 16 117.28 16 120 C18.64 120 21.28 120 24 120 C24 122.64 24 125.28 24 128 C26.64 128 29.28 128 32 128 C32 130.64 32 133.28 32 136 C37.28 136 42.56 136 48 136 C48 130.72 48 125.44 48 120 C45.36 120 42.72 120 40 120 C40 117.36 40 114.72 40 112 C37.36 112 34.72 112 32 112 C32 109.36 32 106.72 32 104 C29.36 104 26.72 104 24 104 C24 101.36 24 98.72 24 96 C18.72 96 13.44 96 8 96 C8 93.36 8 90.72 8 88 C5.36 88 2.72 88 0 88 C0 85.36 0 82.72 0 80 C-2.64 80 -5.28 80 -8 80 C-8 77.36 -8 74.72 -8 72 C-10.64 72 -13.28 72 -16 72 C-16 53.52 -16 35.04 -16 16 C-13.36 16 -10.72 16 -8 16 C-8 13.36 -8 10.72 -8 8 C-5.36 8 -2.72 8 0 8 C0 5.36 0 2.72 0 0 Z " fill="#E63131" transform="translate(688,40)"/>
<path d="M0 0 C10.56 0 21.12 0 32 0 C32 2.64 32 5.28 32 8 C34.64 8 37.28 8 40 8 C40 55.52 40 103.04 40 152 C37.36 152 34.72 152 32 152 C32 154.64 32 157.28 32 160 C24.08 160 16.16 160 8 160 C8 157.36 8 154.72 8 152 C5.36 152 2.72 152 0 152 C0 138.8 0 125.6 0 112 C-7.92 112 -15.84 112 -24 112 C-24 125.2 -24 138.4 -24 152 C-26.64 152 -29.28 152 -32 152 C-32 154.64 -32 157.28 -32 160 C-39.92 160 -47.84 160 -56 160 C-56 157.36 -56 154.72 -56 152 C-58.64 152 -61.28 152 -64 152 C-64 141.44 -64 130.88 -64 120 C-61.36 120 -58.72 120 -56 120 C-56 112.08 -56 104.16 -56 96 C-53.36 96 -50.72 96 -48 96 C-48 90.72 -48 85.44 -48 80 C-45.36 80 -42.72 80 -40 80 C-40 74.72 -40 69.44 -40 64 C-37.36 64 -34.72 64 -32 64 C-32 56.08 -32 48.16 -32 40 C-29.36 40 -26.72 40 -24 40 C-24 34.72 -24 29.44 -24 24 C-21.36 24 -18.72 24 -16 24 C-16 21.36 -16 18.72 -16 16 C-13.36 16 -10.72 16 -8 16 C-8 13.36 -8 10.72 -8 8 C-5.36 8 -2.72 8 0 8 C0 5.36 0 2.72 0 0 Z M0 48 C0 50.64 0 53.28 0 56 C-2.64 56 -5.28 56 -8 56 C-8 58.64 -8 61.28 -8 64 C-10.64 64 -13.28 64 -16 64 C-16 69.28 -16 74.56 -16 80 C-8.08 80 -0.16 80 8 80 C8 77.36 8 74.72 8 72 C10.64 72 13.28 72 16 72 C16 64.08 16 56.16 16 48 C10.72 48 5.44 48 0 48 Z " fill="#E63131" transform="translate(344,40)"/>
<path d="M0 0 C13.2 0 26.4 0 40 0 C40 2.64 40 5.28 40 8 C45.28 8 50.56 8 56 8 C56 13.28 56 18.56 56 24 C61.28 24 66.56 24 72 24 C72 29.28 72 34.56 72 40 C74.64 40 77.28 40 80 40 C80 55.84 80 71.68 80 88 C77.36 88 74.72 88 72 88 C72 90.64 72 93.28 72 96 C69.36 96 66.72 96 64 96 C64 98.64 64 101.28 64 104 C58.72 104 53.44 104 48 104 C48 106.64 48 109.28 48 112 C50.64 112 53.28 112 56 112 C56 114.64 56 117.28 56 120 C58.64 120 61.28 120 64 120 C64 122.64 64 125.28 64 128 C66.64 128 69.28 128 72 128 C72 130.64 72 133.28 72 136 C74.64 136 77.28 136 80 136 C80 141.28 80 146.56 80 152 C77.36 152 74.72 152 72 152 C72 154.64 72 157.28 72 160 C66.72 160 61.44 160 56 160 C56 157.36 56 154.72 56 152 C53.36 152 50.72 152 48 152 C48 149.36 48 146.72 48 144 C45.36 144 42.72 144 40 144 C40 141.36 40 138.72 40 136 C37.36 136 34.72 136 32 136 C32 141.28 32 146.56 32 152 C29.36 152 26.72 152 24 152 C24 154.64 24 157.28 24 160 C16.08 160 8.16 160 0 160 C0 157.36 0 154.72 0 152 C-2.64 152 -5.28 152 -8 152 C-8 104.48 -8 56.96 -8 8 C-5.36 8 -2.72 8 0 8 C0 5.36 0 2.72 0 0 Z M24 32 C24 34.64 24 37.28 24 40 C21.36 40 18.72 40 16 40 C16 47.92 16 55.84 16 64 C18.64 64 21.28 64 24 64 C24 66.64 24 69.28 24 72 C26.64 72 29.28 72 32 72 C32 74.64 32 77.28 32 80 C37.28 80 42.56 80 48 80 C48 77.36 48 74.72 48 72 C50.64 72 53.28 72 56 72 C56 64.08 56 56.16 56 48 C53.36 48 50.72 48 48 48 C48 45.36 48 42.72 48 40 C45.36 40 42.72 40 40 40 C40 37.36 40 34.72 40 32 C34.72 32 29.44 32 24 32 Z " fill="#E63131" transform="translate(584,40)"/>
<path d="M0 0 C15.84 0 31.68 0 48 0 C48 2.64 48 5.28 48 8 C53.28 8 58.56 8 64 8 C64 10.64 64 13.28 64 16 C66.64 16 69.28 16 72 16 C72 42.4 72 68.8 72 96 C69.36 96 66.72 96 64 96 C64 98.64 64 101.28 64 104 C58.72 104 53.44 104 48 104 C48 106.64 48 109.28 48 112 C40.08 112 32.16 112 24 112 C24 125.2 24 138.4 24 152 C21.36 152 18.72 152 16 152 C16 154.64 16 157.28 16 160 C8.08 160 0.16 160 -8 160 C-8 157.36 -8 154.72 -8 152 C-10.64 152 -13.28 152 -16 152 C-16 104.48 -16 56.96 -16 8 C-10.72 8 -5.44 8 0 8 C0 5.36 0 2.72 0 0 Z M16 32 C16 34.64 16 37.28 16 40 C13.36 40 10.72 40 8 40 C8 50.56 8 61.12 8 72 C10.64 72 13.28 72 16 72 C16 74.64 16 77.28 16 80 C23.92 80 31.84 80 40 80 C40 77.36 40 74.72 40 72 C42.64 72 45.28 72 48 72 C48 61.44 48 50.88 48 40 C45.36 40 42.72 40 40 40 C40 37.36 40 34.72 40 32 C32.08 32 24.16 32 16 32 Z " fill="#E63131" transform="translate(408,40)"/>
<path d="M0 0 C18.48 0 36.96 0 56 0 C56 2.64 56 5.28 56 8 C58.64 8 61.28 8 64 8 C64 13.28 64 18.56 64 24 C61.36 24 58.72 24 56 24 C56 26.64 56 29.28 56 32 C45.44 32 34.88 32 24 32 C24 34.64 24 37.28 24 40 C21.36 40 18.72 40 16 40 C16 45.28 16 50.56 16 56 C18.64 56 21.28 56 24 56 C24 58.64 24 61.28 24 64 C34.56 64 45.12 64 56 64 C56 66.64 56 69.28 56 72 C58.64 72 61.28 72 64 72 C64 77.28 64 82.56 64 88 C61.36 88 58.72 88 56 88 C56 90.64 56 93.28 56 96 C45.44 96 34.88 96 24 96 C24 98.64 24 101.28 24 104 C21.36 104 18.72 104 16 104 C16 109.28 16 114.56 16 120 C18.64 120 21.28 120 24 120 C24 122.64 24 125.28 24 128 C34.56 128 45.12 128 56 128 C56 130.64 56 133.28 56 136 C58.64 136 61.28 136 64 136 C64 141.28 64 146.56 64 152 C61.36 152 58.72 152 56 152 C56 154.64 56 157.28 56 160 C37.52 160 19.04 160 0 160 C0 157.36 0 154.72 0 152 C-2.64 152 -5.28 152 -8 152 C-8 149.36 -8 146.72 -8 144 C-10.64 144 -13.28 144 -16 144 C-16 101.76 -16 59.52 -16 16 C-13.36 16 -10.72 16 -8 16 C-8 13.36 -8 10.72 -8 8 C-5.36 8 -2.72 8 0 8 C0 5.36 0 2.72 0 0 Z " fill="#E63131" transform="translate(504,40)"/>
<path d="M0 0 C15.84 0 31.68 0 48 0 C48 2.64 48 5.28 48 8 C50.64 8 53.28 8 56 8 C56 23.84 56 39.68 56 56 C53.36 56 50.72 56 48 56 C48 61.28 48 66.56 48 72 C45.36 72 42.72 72 40 72 C40 77.28 40 82.56 40 88 C37.36 88 34.72 88 32 88 C32 90.64 32 93.28 32 96 C29.36 96 26.72 96 24 96 C24 98.64 24 101.28 24 104 C16.08 104 8.16 104 0 104 C0 119.84 0 135.68 0 152 C-2.64 152 -5.28 152 -8 152 C-8 154.64 -8 157.28 -8 160 C-15.92 160 -23.84 160 -32 160 C-32 157.36 -32 154.72 -32 152 C-34.64 152 -37.28 152 -40 152 C-40 120.32 -40 88.64 -40 56 C-37.36 56 -34.72 56 -32 56 C-32 50.72 -32 45.44 -32 40 C-29.36 40 -26.72 40 -24 40 C-24 34.72 -24 29.44 -24 24 C-21.36 24 -18.72 24 -16 24 C-16 21.36 -16 18.72 -16 16 C-13.36 16 -10.72 16 -8 16 C-8 13.36 -8 10.72 -8 8 C-5.36 8 -2.72 8 0 8 C0 5.36 0 2.72 0 0 Z M8 24 C8 26.64 8 29.28 8 32 C5.36 32 2.72 32 0 32 C0 37.28 0 42.56 0 48 C-2.64 48 -5.28 48 -8 48 C-8 53.28 -8 58.56 -8 64 C-5.36 64 -2.72 64 0 64 C0 66.64 0 69.28 0 72 C5.28 72 10.56 72 16 72 C16 69.36 16 66.72 16 64 C18.64 64 21.28 64 24 64 C24 58.72 24 53.44 24 48 C26.64 48 29.28 48 32 48 C32 42.72 32 37.44 32 32 C29.36 32 26.72 32 24 32 C24 29.36 24 26.72 24 24 C18.72 24 13.44 24 8 24 Z " fill="#E63131" transform="translate(248,40)"/>
</svg>
